<svg aria-hidden="true" style="position: absolute; width: 0; height: 0; overflow: hidden;" version="1.1" xmlns="http://www.w3.org/2000/svg" xmlns:xlink="http://www.w3.org/1999/xlink">
<defs>
<symbol id="icon-eye" viewBox="0 0 20 20">
<title>View Online</title>
<path d="M10 4.4c-6.561 0-10 4.832-10 5.6 0 0.766 3.439 5.6 10 5.6s10-4.834 10-5.6c0-0.768-3.44-5.6-10-5.6zM10 14.307c-2.455 0-4.445-1.928-4.445-4.307s1.99-4.309 4.445-4.309c2.455 0 4.444 1.93 4.444 4.309s-1.989 4.307-4.444 4.307zM10 10c-0.407-0.447 0.663-2.154 0-2.154-1.228 0-2.223 0.965-2.223 2.154s0.995 2.154 2.223 2.154c1.227 0 2.223-0.965 2.223-2.154 0-0.547-1.877 0.379-2.223 0z"></path>
</symbol>
<symbol id="icon-mail" viewBox="0 0 20 20">
<title>mail</title>
<path d="M1.574 5.286c0.488 0.262 7.248 3.894 7.5 4.029s0.578 0.199 0.906 0.199c0.328 0 0.654-0.064 0.906-0.199s7.012-3.767 7.5-4.029c0.489-0.263 0.951-1.286 0.054-1.286h-16.919c-0.897 0-0.435 1.023 0.053 1.286zM18.613 7.489c-0.555 0.289-7.387 3.849-7.727 4.027s-0.578 0.199-0.906 0.199-0.566-0.021-0.906-0.199-7.133-3.739-7.688-4.028c-0.39-0.204-0.386 0.035-0.386 0.219s0 7.293 0 7.293c0 0.42 0.566 1 1 1h16c0.434 0 1-0.58 1-1 0 0 0-7.108 0-7.292s0.004-0.423-0.387-0.219z"></path>
</symbol>
<symbol id="icon-phone" viewBox="0 0 20 20">
<title>phone</title>
<path d="M11.229 11.229c-1.583 1.582-3.417 3.096-4.142 2.371-1.037-1.037-1.677-1.941-3.965-0.102-2.287 1.838-0.53 3.064 0.475 4.068 1.16 1.16 5.484 0.062 9.758-4.211 4.273-4.274 5.368-8.598 4.207-9.758-1.005-1.006-2.225-2.762-4.063-0.475s-0.936 2.927 0.103 3.965c0.722 0.725-0.791 2.559-2.373 4.142z"></path>
</symbol>
<symbol id="icon-skype" viewBox="0 0 20 20">
<title>skype</title>
<path d="M18.671 12.037c0.132-0.623 0.203-1.272 0.203-1.938 0-4.986-3.93-9.029-8.777-9.029-0.511 0-1.012 0.047-1.5 0.133-0.785-0.508-1.712-0.803-2.707-0.803-2.811 0-5.090 2.344-5.090 5.237 0 0.965 0.256 1.871 0.699 2.648-0.116 0.586-0.178 1.194-0.178 1.815 0 4.986 3.93 9.029 8.775 9.029 0.551 0 1.087-0.051 1.607-0.15 0.717 0.396 1.535 0.621 2.406 0.621 2.811 0 5.090-2.344 5.090-5.236 0.001-0.837-0.19-1.626-0.528-2.327zM14.599 14.416c-0.406 0.59-1.006 1.059-1.783 1.391-0.769 0.33-1.692 0.496-2.742 0.496-1.26 0-2.317-0.227-3.143-0.678-0.59-0.328-1.076-0.771-1.445-1.318-0.372-0.555-0.561-1.104-0.561-1.633 0-0.33 0.123-0.617 0.365-0.852 0.24-0.232 0.549-0.352 0.916-0.352 0.301 0 0.562 0.094 0.773 0.277 0.202 0.176 0.375 0.438 0.514 0.773 0.156 0.367 0.326 0.676 0.505 0.92 0.172 0.234 0.42 0.432 0.735 0.586 0.318 0.154 0.748 0.232 1.275 0.232 0.725 0 1.32-0.158 1.768-0.473 0.438-0.309 0.65-0.676 0.65-1.127 0-0.357-0.111-0.637-0.34-0.857-0.238-0.228-0.555-0.408-0.936-0.531-0.399-0.127-0.941-0.266-1.611-0.41-0.91-0.201-1.683-0.439-2.299-0.707-0.63-0.275-1.137-0.658-1.508-1.137-0.375-0.483-0.567-1.092-0.567-1.807 0-0.682 0.2-1.297 0.596-1.828 0.393-0.525 0.965-0.935 1.703-1.217 0.728-0.277 1.596-0.418 2.576-0.418 0.783 0 1.473 0.094 2.047 0.277 0.578 0.186 1.066 0.436 1.449 0.744 0.387 0.311 0.674 0.643 0.854 0.986 0.182 0.35 0.275 0.695 0.275 1.031 0 0.322-0.121 0.615-0.361 0.871-0.24 0.258-0.543 0.387-0.9 0.387-0.324 0-0.58-0.082-0.756-0.242-0.164-0.148-0.336-0.383-0.524-0.717-0.219-0.428-0.484-0.766-0.788-1.002-0.295-0.232-0.788-0.35-1.466-0.35-0.629 0-1.141 0.131-1.519 0.387-0.368 0.249-0.545 0.532-0.545 0.866 0 0.207 0.058 0.379 0.176 0.525 0.125 0.158 0.301 0.295 0.523 0.41 0.23 0.12 0.467 0.214 0.705 0.282 0.244 0.070 0.654 0.172 1.215 0.307 0.711 0.156 1.363 0.332 1.939 0.521 0.585 0.193 1.090 0.43 1.502 0.705 0.42 0.283 0.754 0.645 0.989 1.076 0.237 0.434 0.357 0.969 0.357 1.59 0.001 0.745-0.206 1.422-0.613 2.016z"></path>
</symbol>
<symbol id="icon-facebook" viewBox="0 0 20 20">
<title>facebook</title>
<path d="M17 1h-14c-1.1 0-2 0.9-2 2v14c0 1.101 0.9 2 2 2h7v-7h-2v-2.475h2v-2.050c0-2.164 1.212-3.684 3.766-3.684l1.803 0.002v2.605h-1.197c-0.994 0-1.372 0.746-1.372 1.438v1.69h2.568l-0.568 2.474h-2v7h4c1.1 0 2-0.899 2-2v-14c0-1.1-0.9-2-2-2z"></path>
</symbol>
<symbol id="icon-linkedin" viewBox="0 0 20 20">
<title>linkedin</title>
<path d="M5 3c0 1.062-0.71 1.976-2.001 1.976-1.215 0-1.999-0.862-1.999-1.924 0-1.090 0.76-2.052 2-2.052s1.976 0.91 2 2zM1 19v-13h4v13h-4z"></path>
<path d="M7 10.444c0-1.545-0.051-2.836-0.102-3.951h3.594l0.178 1.723h0.076c0.506-0.811 1.746-2 3.822-2 2.532 0 4.432 1.695 4.432 5.342v7.442h-4v-6.861c0-1.594-0.607-2.81-2-2.81-1.062 0-1.594 0.86-1.873 1.569-0.102 0.254-0.127 0.608-0.127 0.963v7.139h-4v-8.556z"></path>
</symbol>
<symbol id="icon-github" viewBox="0 0 32 32">
<title>github</title>
<path d="M16 0.395c-8.836 0-16 7.163-16 16 0 7.069 4.585 13.067 10.942 15.182 0.8 0.148 1.094-0.347 1.094-0.77 0-0.381-0.015-1.642-0.022-2.979-4.452 0.968-5.391-1.888-5.391-1.888-0.728-1.849-1.776-2.341-1.776-2.341-1.452-0.993 0.11-0.973 0.11-0.973 1.606 0.113 2.452 1.649 2.452 1.649 1.427 2.446 3.743 1.739 4.656 1.33 0.143-1.034 0.558-1.74 1.016-2.14-3.554-0.404-7.29-1.777-7.29-7.907 0-1.747 0.625-3.174 1.649-4.295-0.166-0.403-0.714-2.030 0.155-4.234 0 0 1.344-0.43 4.401 1.64 1.276-0.355 2.645-0.532 4.005-0.539 1.359 0.006 2.729 0.184 4.008 0.539 3.054-2.070 4.395-1.64 4.395-1.64 0.871 2.204 0.323 3.831 0.157 4.234 1.026 1.12 1.647 2.548 1.647 4.295 0 6.145-3.743 7.498-7.306 7.895 0.574 0.497 1.085 1.47 1.085 2.963 0 2.141-0.019 3.864-0.019 4.391 0 0.426 0.288 0.925 1.099 0.768 6.354-2.118 10.933-8.113 10.933-15.18 0-8.837-7.164-16-16-16z"></path>
</symbol>
</defs>
</svg>
